<svg width="20" height="20" viewBox="0 0 20 20" fill="none" xmlns="http://www.w3.org/2000/svg">
<path d="M4 3.95621C4 2.86121 4.895 1.93421 6.03 2.00421C10.477 2.27821 14.377 3.77421 17.432 6.69121C18.299 7.51821 18.128 8.86921 17.229 9.55921L16.985 9.74721L16.588 9.30621L16.581 9.29921C13.645 6.28421 9.39 4.51421 4.871 4.51421H4V3.95621ZM4 5.51321V16.5002C4 17.7322 5.406 18.4382 6.395 17.7012L8.003 16.5032V16.5052C8.003 16.7704 8.10836 17.0248 8.29589 17.2123C8.48343 17.3999 8.73778 17.5052 9.003 17.5052C9.26822 17.5052 9.52257 17.3999 9.71011 17.2123C9.89764 17.0248 10.003 16.7704 10.003 16.5052V14.5032C10.004 14.3764 10.0532 14.2547 10.1405 14.1628C10.2278 14.0709 10.3468 14.0156 10.4734 14.0081C10.6 14.0006 10.7247 14.0415 10.8223 14.1224C10.9199 14.2034 10.983 14.3184 10.999 14.4442V15.0042C10.999 15.2694 11.1044 15.5238 11.2919 15.7113C11.4794 15.8989 11.7338 16.0042 11.999 16.0042C12.2642 16.0042 12.5186 15.8989 12.7061 15.7113C12.8936 15.5238 12.999 15.2694 12.999 15.0042V12.7662C13.824 12.1612 15.085 11.2022 16.189 10.3582L15.858 9.98921C13.119 7.18121 9.13 5.51321 4.87 5.51321H4ZM8.248 8.25521C8.24793 8.35337 8.22853 8.45056 8.19091 8.54123C8.15328 8.63189 8.09817 8.71426 8.02871 8.78363C7.95925 8.85299 7.87681 8.908 7.78609 8.9455C7.69538 8.98301 7.59816 9.00228 7.5 9.00221C7.40184 9.00215 7.30465 8.98275 7.21398 8.94512C7.12332 8.90749 7.04095 8.85238 6.97158 8.78292C6.90222 8.71346 6.84721 8.63102 6.80971 8.54031C6.7722 8.44959 6.75293 8.35237 6.753 8.25421C6.753 8.05596 6.83175 7.86583 6.97194 7.72565C7.11212 7.58547 7.30225 7.50671 7.5005 7.50671C7.69875 7.50671 7.88888 7.58547 8.02906 7.72565C8.16925 7.86583 8.248 8.05596 8.248 8.25421M11.223 10.2542C11.223 10.4525 11.1442 10.6426 11.0041 10.7828C10.8639 10.923 10.6737 11.0017 10.4755 11.0017C10.2773 11.0017 10.0871 10.923 9.94694 10.7828C9.80675 10.6426 9.728 10.4525 9.728 10.2542C9.728 10.056 9.80675 9.86583 9.94694 9.72565C10.0871 9.58547 10.2773 9.50671 10.4755 9.50671C10.6737 9.50671 10.8639 9.58547 11.0041 9.72565C11.1442 9.86583 11.223 10.056 11.223 10.2542ZM8.256 12.7562C8.256 12.9555 8.17682 13.1467 8.03589 13.2876C7.89496 13.4285 7.70381 13.5077 7.5045 13.5077C7.30519 13.5077 7.11404 13.4285 6.97311 13.2876C6.83218 13.1467 6.753 12.9555 6.753 12.7562C6.753 12.5569 6.83218 12.3658 6.97311 12.2248C7.11404 12.0839 7.30519 12.0047 7.5045 12.0047C7.70381 12.0047 7.89496 12.0839 8.03589 12.2248C8.17682 12.3658 8.256 12.5569 8.256 12.7562Z" fill="#FF6200"/>
</svg>
