<svg width="17" height="34" viewBox="0 0 17 34" fill="none" xmlns="http://www.w3.org/2000/svg">
<path fill-rule="evenodd" clip-rule="evenodd" d="M6.65651 6.65651C9.16327 4.14974 12.4862 2.64676 16.0007 2.40624C16.5517 2.36853 17 1.92438 17 1.37209V1C17 0.447715 16.5513 -0.00305665 15.9999 0.0289299C7.07666 0.546605 0 7.94698 0 17C0 26.053 7.07665 33.4534 15.9999 33.9711C16.5513 34.0031 17 33.5523 17 33V32.6279C17 32.0756 16.5517 31.6315 16.0007 31.5938C12.4862 31.3532 9.16327 29.8503 6.65651 27.3435C3.91324 24.6002 2.37209 20.8796 2.37209 17C2.37209 13.1204 3.91324 9.39977 6.65651 6.65651ZM16.0014 6.37236C16.5513 6.32072 17 6.7733 17 7.32558V7.69767C17 8.24996 16.5507 8.69132 16.0024 8.75713C15.667 8.79737 15.3379 8.85763 15.0161 8.93663C14.4247 9.08184 14.1904 9.76149 14.4947 10.289L15.7025 12.3826C15.8396 12.6201 16.1182 12.7331 16.3897 12.6947V12.6947C16.7251 12.6474 17 12.9264 17 13.2652V15.0168C17 15.019 16.9982 15.0208 16.996 15.0208V15.0208C16.6589 15.0208 16.3275 15.1077 16.0338 15.2731L16.01 15.2889L15.9863 15.3016C15.6914 15.4772 15.4473 15.7266 15.278 16.0252C15.1087 16.3238 15.0201 16.6614 15.0209 17.0046C15.0217 17.3479 15.1119 17.685 15.2825 17.9828C15.4532 18.2807 15.6985 18.5289 15.9942 18.7032L16.01 18.7127L16.0274 18.7221C16.0324 18.725 16.0374 18.7278 16.0424 18.7306C16.5246 19.0002 17 19.4279 17 19.9803V20.7355C17 21.0751 16.7246 21.355 16.3884 21.3074V21.3074C16.1158 21.2689 15.836 21.3822 15.6985 21.6206L14.4912 23.7132C14.187 24.2405 14.421 24.9198 15.0122 25.0649C15.6479 25.221 16.3127 25.3039 16.9968 25.3039V25.3039C16.9986 25.3039 17 25.3053 17 25.3071V26.6744C17 27.2267 16.5513 27.6793 16.0014 27.6276C13.5367 27.3961 11.2171 26.313 9.45205 24.548C7.4502 22.5461 6.32558 19.831 6.32558 17C6.32558 14.169 7.4502 11.4539 9.45205 9.45205C11.2171 7.68696 13.5367 6.60386 16.0014 6.37236ZM13.0825 15.1084C12.8877 15.5109 12.5054 15.814 12.0582 15.814H9.93602C9.32695 15.814 8.8554 15.2713 9.02504 14.6863C9.39878 13.3976 10.0797 12.2181 11.0088 11.25C11.4306 10.8106 12.1364 10.9476 12.4409 11.4751L13.5026 13.3139C13.7267 13.7019 13.6547 14.1855 13.4023 14.5557C13.2823 14.7318 13.1754 14.9166 13.0825 15.1084ZM13.4457 19.509C13.6779 19.8376 13.741 20.2721 13.5399 20.6205L11.8627 23.5252C11.8626 23.5255 11.862 23.5254 11.862 23.525V23.525C11.862 23.5249 11.862 23.5248 11.8619 23.5247C10.4926 22.4463 9.50536 20.971 9.02511 19.3153C8.85543 18.7303 9.32698 18.1876 9.93608 18.1876H12.0585C12.5056 18.1876 12.8878 18.4904 13.0824 18.8929C13.1864 19.1078 13.3079 19.3139 13.4457 19.509Z" fill="#DC2626"/>
</svg>
